<svg width="24" height="25" viewBox="0 0 24 25" fill="none" xmlns="http://www.w3.org/2000/svg">
<path d="M12 0.5C5.3832 0.5 0 5.8832 0 12.5V17.4716C0 18.7004 1.0764 19.7 2.4 19.7H3.6C3.91826 19.7 4.22348 19.5736 4.44853 19.3485C4.67357 19.1235 4.8 18.8183 4.8 18.5V12.3284C4.8 12.0101 4.67357 11.7049 4.44853 11.4799C4.22348 11.2548 3.91826 11.1284 3.6 11.1284H2.5104C3.1776 6.4844 7.1736 2.9 12 2.9C16.8264 2.9 20.8224 6.4844 21.4896 11.1284H20.4C20.0817 11.1284 19.7765 11.2548 19.5515 11.4799C19.3264 11.7049 19.2 12.0101 19.2 12.3284V19.7C19.2 21.0236 18.1236 22.1 16.8 22.1H14.4V20.9H9.6V24.5H16.8C19.4472 24.5 21.6 22.3472 21.6 19.7C22.9236 19.7 24 18.7004 24 17.4716V12.5C24 5.8832 18.6168 0.5 12 0.5Z" fill="white"/>
</svg>
