<svg width="30" height="30" viewBox="0 0 30 30" fill="none" xmlns="http://www.w3.org/2000/svg">
<path d="M15 28.125C22.2487 28.125 28.125 22.2487 28.125 15C28.125 7.75126 22.2487 1.875 15 1.875C7.75126 1.875 1.875 7.75126 1.875 15C1.875 22.2487 7.75126 28.125 15 28.125Z" fill="url(#paint0_linear_53_33)"/>
<path d="M19.8878 19.014L20.4709 15.3095H16.8236V12.9066C16.8236 11.8928 17.3322 10.9041 18.9658 10.9041H20.625V7.75031C20.625 7.75031 19.1198 7.5 17.6815 7.5C14.6764 7.5 12.7141 9.27463 12.7141 12.486V15.3095H9.375V19.014H12.7141V27.9698C13.3844 28.0724 14.0702 28.125 14.7689 28.125C15.4675 28.125 16.1533 28.0724 16.8236 27.9698V19.014H19.8878Z" fill="white"/>
<defs>
<linearGradient id="paint0_linear_53_33" x1="1.875" y1="15" x2="26.427" y2="21.1066" gradientUnits="userSpaceOnUse">
<stop stop-color="white" stop-opacity="0.4"/>
<stop offset="1" stop-color="white" stop-opacity="0.15"/>
</linearGradient>
</defs>
</svg>
