<svg width="30" height="30" viewBox="0 0 30 30" fill="none" xmlns="http://www.w3.org/2000/svg">
<path d="M20.925 1.875H9.075C5.09855 1.875 1.875 5.09855 1.875 9.075V20.925C1.875 24.9015 5.09855 28.125 9.075 28.125H20.925C24.9015 28.125 28.125 24.9015 28.125 20.925V9.075C28.125 5.09855 24.9015 1.875 20.925 1.875Z" fill="url(#paint0_linear_53_28)"/>
<path d="M21.5626 9.84374C21.5626 10.6204 20.9329 11.25 20.1563 11.25C19.3796 11.25 18.75 10.6204 18.75 9.84374C18.75 9.0671 19.3796 8.4375 20.1563 8.4375C20.9329 8.4375 21.5626 9.0671 21.5626 9.84374Z" fill="white"/>
<path fill-rule="evenodd" clip-rule="evenodd" d="M15 19.6874C17.5889 19.6874 19.6874 17.5889 19.6874 15C19.6874 12.4111 17.5889 10.3125 15 10.3125C12.4111 10.3125 10.3125 12.4111 10.3125 15C10.3125 17.5889 12.4111 19.6874 15 19.6874ZM15 17.8126C16.5533 17.8126 17.8126 16.5533 17.8126 15C17.8126 13.4467 16.5533 12.1874 15 12.1874C13.4467 12.1874 12.1874 13.4467 12.1874 15C12.1874 16.5533 13.4467 17.8126 15 17.8126Z" fill="white"/>
<path fill-rule="evenodd" clip-rule="evenodd" d="M5.625 14.625C5.625 11.4747 5.625 9.89956 6.23809 8.6963C6.77737 7.63789 7.63789 6.77737 8.6963 6.23809C9.89956 5.625 11.4747 5.625 14.625 5.625H15.375C18.5252 5.625 20.1005 5.625 21.3037 6.23809C22.3621 6.77737 23.2226 7.63789 23.7619 8.6963C24.375 9.89956 24.375 11.4747 24.375 14.625V15.375C24.375 18.5252 24.375 20.1005 23.7619 21.3037C23.2226 22.3621 22.3621 23.2226 21.3037 23.7619C20.1005 24.375 18.5252 24.375 15.375 24.375H14.625C11.4747 24.375 9.89956 24.375 8.6963 23.7619C7.63789 23.2226 6.77737 22.3621 6.23809 21.3037C5.625 20.1005 5.625 18.5252 5.625 15.375V14.625ZM14.625 7.5H15.375C16.9811 7.5 18.0728 7.50146 18.9168 7.5704C19.7388 7.63757 20.1592 7.75931 20.4524 7.90872C21.158 8.26825 21.7318 8.84192 22.0913 9.54754C22.2407 9.84078 22.3625 10.2612 22.4296 11.0832C22.4986 11.9271 22.5 13.0189 22.5 14.625V15.375C22.5 16.9811 22.4986 18.0728 22.4296 18.9168C22.3625 19.7388 22.2407 20.1592 22.0913 20.4524C21.7318 21.158 21.158 21.7318 20.4524 22.0913C20.1592 22.2407 19.7388 22.3625 18.9168 22.4296C18.0728 22.4986 16.9811 22.5 15.375 22.5H14.625C13.0189 22.5 11.9271 22.4986 11.0832 22.4296C10.2612 22.3625 9.84078 22.2407 9.54754 22.0913C8.84192 21.7318 8.26825 21.158 7.90872 20.4524C7.75931 20.1592 7.63757 19.7388 7.5704 18.9168C7.50146 18.0728 7.5 16.9811 7.5 15.375V14.625C7.5 13.0189 7.50146 11.9271 7.5704 11.0832C7.63757 10.2612 7.75931 9.84078 7.90872 9.54754C8.26825 8.84192 8.84192 8.26825 9.54754 7.90872C9.84078 7.75931 10.2612 7.63757 11.0832 7.5704C11.9271 7.50146 13.0189 7.5 14.625 7.5Z" fill="white"/>
<defs>
<linearGradient id="paint0_linear_53_28" x1="1.875" y1="15" x2="26.427" y2="21.1066" gradientUnits="userSpaceOnUse">
<stop stop-color="white" stop-opacity="0.4"/>
<stop offset="1" stop-color="white" stop-opacity="0.15"/>
</linearGradient>
</defs>
</svg>
