<svg width="30" height="30" viewBox="0 0 30 30" fill="none" xmlns="http://www.w3.org/2000/svg">
<path d="M15 28.125C22.2487 28.125 28.125 22.2487 28.125 15C28.125 7.75126 22.2487 1.875 15 1.875C7.75126 1.875 1.875 7.75126 1.875 15C1.875 22.2487 7.75126 28.125 15 28.125Z" fill="url(#paint0_linear_53_36)"/>
<path d="M21.55 9.57074C21.6668 8.81561 20.9488 8.21958 20.2774 8.51437L6.90451 14.3858C6.42303 14.5972 6.45825 15.3265 6.95763 15.4855L9.71545 16.3638C10.2418 16.5313 10.8118 16.4447 11.2714 16.1272L17.489 11.8315C17.6765 11.702 17.881 11.9686 17.7208 12.1337L13.2451 16.7482C12.811 17.1958 12.8971 17.9542 13.4194 18.2816L18.4303 21.4241C18.9923 21.7765 19.7153 21.4224 19.8204 20.7433L21.55 9.57074Z" fill="white"/>
<defs>
<linearGradient id="paint0_linear_53_36" x1="1.875" y1="15" x2="26.427" y2="21.1066" gradientUnits="userSpaceOnUse">
<stop stop-color="white" stop-opacity="0.4"/>
<stop offset="1" stop-color="white" stop-opacity="0.15"/>
</linearGradient>
</defs>
</svg>
