<svg width="30" height="22" viewBox="0 0 30 22" fill="none" xmlns="http://www.w3.org/2000/svg">
<path d="M29.3729 3.73357C29.0277 2.43471 28.0114 1.41167 26.7206 1.06456C24.3813 0.433594 15 0.433594 15 0.433594C15 0.433594 5.61866 0.433594 3.27942 1.06456C1.98859 1.41167 0.971978 2.43471 0.627114 3.73357C-3.82785e-08 6.08822 0 11.0004 0 11.0004C0 11.0004 -3.82785e-08 15.9127 0.626793 18.2673C0.971657 19.5662 1.98827 20.5892 3.2791 20.9363C5.61866 21.5673 15 21.5673 15 21.5673C15 21.5673 24.3813 21.5673 26.7209 20.9363C28.0117 20.5889 29.028 19.5662 29.3732 18.2673C30 15.9127 30 11.0004 30 11.0004C30 11.0004 30 6.08822 29.3729 3.73357Z" fill="url(#paint0_linear_53_39)"/>
<path d="M11.8805 6.46582V15.5357L19.8535 11.0011L11.8805 6.46582Z" fill="#F1F1F1"/>
<defs>
<linearGradient id="paint0_linear_53_39" x1="-3.79909e-07" y1="11.0004" x2="26.4928" y2="20.3541" gradientUnits="userSpaceOnUse">
<stop stop-color="white" stop-opacity="0.4"/>
<stop offset="1" stop-color="white" stop-opacity="0.15"/>
</linearGradient>
</defs>
</svg>
